# xmcd CD database file generated by Grip 3.2.0
# 
# Track frame offsets:
#       150
#       32878
#       54990
#       80362
#       94237
#       102683
#       132916
#       169673
#       194254
#       212731
# 
# Disc length: 3221 seconds
# 
# Revision: 1
# Processed by: cddbd v1.5.1PL0 Copyright (c) Steve Scherf et al.
# Submitted via: Grip 3.2.0
# 
DISCID=880c930a
DTITLE=Ancient Greeks - Departure Suite
DYEAR=2005
DGENRE=Rock
TTITLE0=Moonface
TTITLE1=The Reason I Won't Drive Down That Street
TTITLE2=You Are Not Wire
TTITLE3=Winter Sits With Me
TTITLE4=(You Make Me Feel)
TTITLE5=Airport Day
TTITLE6=Departure
TTITLE7=Loved By God
TTITLE8=Deciduous
TTITLE9=Worlds Are Ending Every Moment Of Our Lives
EXTD=YEAR: 2005
EXTT0=
EXTT1=
EXTT2=
EXTT3=
EXTT4=
EXTT5=
EXTT6=
EXTT7=
EXTT8=
EXTT9=
PLAYORDER=
